<?xml version="1.0" standalone="no"?>
<!DOCTYPE svg PUBLIC "-//W3C//DTD SVG 20010904//EN"
 "http://www.w3.org/TR/2001/REC-SVG-20010904/DTD/svg10.dtd">
<svg version="1.0" xmlns="http://www.w3.org/2000/svg"
 width="512.000000pt" height="512.000000pt" viewBox="0 0 512.000000 512.000000"
 preserveAspectRatio="xMidYMid meet">
<metadata>
Created by potrace 1.14, written by Peter Selinger 2001-2017
</metadata>
<g transform="translate(0.000000,512.000000) scale(0.100000,-0.100000)"
fill="#000000" stroke="none">
<path d="M1400 5109 c-14 -5 -36 -20 -49 -32 -13 -12 -95 -166 -184 -342 -139
-278 -160 -326 -160 -368 -1 -51 18 -85 67 -121 25 -19 45 -21 231 -26 l203
-5 -100 -199 c-123 -245 -129 -288 -52 -355 61 -54 157 -51 206 8 13 15 95
171 182 346 170 342 177 363 139 427 -10 17 -31 40 -46 52 -26 19 -43 21 -233
24 -112 2 -204 5 -204 8 0 2 45 93 101 203 107 213 117 248 85 308 -32 62
-125 98 -186 72z"/>
<path d="M3200 5112 c-39 -18 -64 -48 -173 -202 -65 -91 -123 -174 -131 -185
-89 -125 -129 -181 -171 -243 -112 -162 -190 -274 -394 -563 -118 -167 -233
-331 -256 -364 -23 -33 -74 -105 -113 -160 -39 -55 -80 -113 -92 -130 -21 -29
-219 -312 -288 -410 -19 -27 -92 -131 -162 -230 -70 -99 -140 -199 -156 -221
-16 -23 -80 -115 -143 -204 -63 -90 -120 -180 -127 -200 -17 -50 -2 -104 40
-146 46 -46 89 -51 200 -24 50 12 272 67 494 121 221 54 404 99 406 99 3 0 0
-15 -5 -32 -6 -18 -12 -40 -14 -48 -14 -51 -106 -375 -121 -425 -10 -33 -19
-64 -20 -70 -1 -5 -30 -107 -64 -225 -34 -118 -70 -246 -81 -285 -10 -38 -27
-99 -38 -135 -24 -84 -111 -390 -155 -545 -20 -72 -32 -134 -30 -155 8 -64 65
-119 131 -127 72 -8 103 14 200 144 48 65 92 122 96 128 4 5 46 62 93 125 47
63 94 126 104 140 10 14 67 90 125 170 59 80 115 156 126 170 47 62 286 381
400 535 894 1207 861 1163 1104 1490 144 193 155 213 149 268 -7 69 -75 137
-138 137 -28 0 -224 -41 -841 -177 -301 -66 -286 -63 -281 -44 11 35 78 269
91 316 7 28 109 383 225 790 125 437 212 758 213 783 0 46 -20 81 -65 115 -28
21 -111 32 -138 19z"/>
<path d="M3495 1489 c-42 -24 -67 -55 -109 -138 -241 -470 -286 -565 -286
-598 0 -52 28 -91 85 -118 47 -23 62 -25 237 -27 104 -2 188 -4 188 -6 0 -1
-46 -93 -102 -205 -86 -172 -101 -209 -101 -250 0 -129 169 -195 256 -99 28
31 336 656 338 687 6 74 -47 148 -114 160 -18 3 -111 7 -207 9 -137 2 -174 6
-172 16 2 7 47 101 101 210 93 184 98 200 91 238 -9 51 -32 88 -70 111 -34 20
-106 26 -135 10z"/>
</g>
</svg>
